<svg width="157" height="25" viewBox="0 0 157 25" fill="none" xmlns="http://www.w3.org/2000/svg">
<g clip-path="url(#clip0_34_2)">
<mask id="mask0_34_2" style="mask-type:luminance" maskUnits="userSpaceOnUse" x="0" y="4" width="18" height="17">
<path d="M17.4757 4.41138H0V20.5884H17.4757V4.41138Z" fill="white"/>
</mask>
<g mask="url(#mask0_34_2)">
<path d="M17.4659 12.1719C17.4146 11.1112 17.1501 10.0671 16.6867 9.09752C16.2337 8.14363 15.5802 7.26012 14.7803 6.54258C13.9818 5.82079 13.0369 5.25436 12.0145 4.88762C10.9902 4.52805 9.89231 4.36367 8.80221 4.42342C7.70997 4.48557 6.64349 4.77156 5.66025 5.25595C4.7009 5.73554 3.81835 6.41007 3.11919 7.22347C2.42189 8.04006 1.88543 8.98757 1.56995 9.99962C1.24802 11.0093 1.14008 12.0781 1.24587 13.1173C1.33152 13.8834 1.51222 14.5965 1.80972 15.2797C1.85402 15.2412 1.91202 15.2152 1.98397 15.2093C1.48672 13.5488 1.57102 11.782 2.184 10.2102C2.88908 8.38503 4.30112 6.87744 6.074 6.07228C7.81468 5.26232 9.87835 5.12503 11.7148 5.74139C12.635 6.04014 13.4988 6.51868 14.2366 7.14725C14.9752 7.77823 15.5821 8.54914 16.0261 9.42389C16.4605 10.2827 16.7299 11.2411 16.7976 12.2099C16.8674 13.1805 16.7404 14.1665 16.4276 15.0938C16.1148 16.0214 15.6161 16.8895 14.9653 17.6307C14.3156 18.373 13.5133 18.9859 12.6203 19.4265C11.7294 19.8712 10.748 20.1431 9.74679 20.2157C8.74636 20.2893 7.72795 20.1649 6.76887 19.8518C5.8098 19.5392 4.91033 19.0384 4.14108 18.3828C3.37077 17.7279 2.71562 16.9272 2.25542 16.0235C2.2506 16.0118 2.17246 15.8682 2.15447 15.8249C2.11017 15.7184 2.05996 15.5824 2.05325 15.5894L2.21112 16.0458C2.6477 16.9714 3.25048 17.8254 4.01838 18.519C4.78548 19.2137 5.69489 19.7575 6.67812 20.1107C7.66109 20.464 8.71709 20.6264 9.76854 20.5802C10.82 20.5356 11.8642 20.2801 12.8219 19.8372C13.7782 19.3919 14.649 18.7582 15.3627 17.9794C16.0771 17.2015 16.6348 16.2812 16.9948 15.2885C17.3552 14.2958 17.5182 13.2304 17.4661 12.1716L17.4659 12.1719Z" fill="#36A271"/>
<path d="M2.40934 15.3195C2.53178 15.2359 2.72859 14.58 2.86525 13.9559C3.00165 13.3318 3.00649 11.5605 2.77343 11.3826C2.53983 11.205 2.06727 12.2013 1.82563 12.2337C1.58344 12.2659 1.46074 12.2826 1.55283 12.2701C1.64466 12.2576 1.52223 12.2744 1.28004 12.3062C1.03812 12.3386 0.209809 11.5903 0.0326 11.8229C-0.144071 12.0553 0.440986 13.6733 0.740092 14.2395C1.0392 14.8057 1.3963 15.3267 1.53404 15.3979C1.67232 15.469 1.86966 15.5145 1.9733 15.5017C2.08017 15.4887 2.24019 15.443 2.24019 15.443" fill="#36A271"/>
<path d="M2.4721 16.7558C2.33141 16.7842 2.1985 16.8203 2.05351 16.8235C1.64459 16.8331 1.25204 16.6116 0.974686 16.3277C1.08826 16.3166 1.17901 16.2792 1.29715 16.2956C1.39219 16.3089 1.59572 16.3904 1.69238 16.4289C1.91175 16.516 2.12869 16.6106 2.34751 16.6998C2.38967 16.717 2.43022 16.7388 2.4721 16.7558Z" fill="#36A271"/>
<path d="M1.46862 16.0104C1.93313 15.9945 2.31144 16.2476 2.44005 16.6961C2.34124 16.6616 2.24083 16.6308 2.14309 16.5924C2.09208 16.5721 1.72074 16.4146 1.70141 16.4003C1.6402 16.3551 1.5728 16.1865 1.52958 16.1172C1.5038 16.0832 1.42351 16.0272 1.4203 16.0205C1.41493 16.0096 1.46459 16.0182 1.46889 16.0104H1.46862Z" fill="#36A271"/>
<path d="M1.46888 16.0104C1.46458 16.0183 1.41518 16.0095 1.42029 16.0205C1.4235 16.0271 1.50379 16.0829 1.52956 16.1171C1.57279 16.1865 1.64018 16.355 1.7014 16.4002C1.72073 16.4145 2.09207 16.572 2.14308 16.5923C2.24081 16.6307 2.34123 16.6615 2.44004 16.696C2.5213 16.7247 2.60266 16.7535 2.68411 16.7821L2.66773 16.823C2.60275 16.8004 2.53616 16.7815 2.47226 16.7558C2.4301 16.7388 2.38956 16.7171 2.34768 16.6997C2.12885 16.6105 1.9119 16.516 1.69253 16.4289C1.59561 16.3904 1.39236 16.3088 1.29732 16.2956C1.17917 16.2791 1.08842 16.3166 0.974844 16.3278C0.858853 16.209 0.728632 16.0412 0.671173 15.8861C0.793608 16.1918 1.1593 16.0208 1.46861 16.0101L1.46888 16.0104Z" fill="#36A271"/>
<path d="M2.77042 16.6151C2.85204 16.5198 2.93689 16.4333 3.00079 16.3241C3.18149 16.0156 3.17478 15.6218 3.0706 15.2896C3.01368 15.3716 2.94602 15.425 2.90896 15.5222C2.87916 15.6005 2.85661 15.7903 2.8456 15.8809C2.82063 16.0857 2.80264 16.2915 2.77955 16.4962C2.77498 16.5358 2.77498 16.5759 2.77042 16.6151Z" fill="#36A271"/>
<path d="M2.61329 15.5323C2.40413 15.8808 2.44145 16.277 2.73733 16.5654C2.75209 16.4753 2.77063 16.3853 2.78191 16.2942C2.78781 16.2467 2.82217 15.8961 2.81922 15.8751C2.81009 15.8094 2.70673 15.6863 2.67101 15.6239C2.65544 15.5897 2.64577 15.5047 2.64202 15.4997C2.63557 15.4909 2.62134 15.5326 2.61356 15.5323H2.61329Z" fill="#36A271"/>
<path d="M2.61286 15.5323C2.62064 15.5323 2.63514 15.4909 2.64132 15.4996C2.64507 15.5049 2.65474 15.5899 2.67032 15.6239C2.70602 15.6863 2.8094 15.8092 2.81852 15.8751C2.82148 15.8958 2.78711 16.2464 2.78121 16.2942C2.76993 16.3852 2.7514 16.475 2.73663 16.5653C2.72464 16.6397 2.71256 16.7139 2.70039 16.7881L2.73932 16.7931C2.74925 16.734 2.76268 16.6749 2.76966 16.6152C2.77423 16.5759 2.77449 16.5356 2.77878 16.4963C2.80187 16.2912 2.81986 16.0854 2.84484 15.881C2.85585 15.7906 2.87813 15.6005 2.90821 15.5222C2.94526 15.425 3.01319 15.3713 3.06983 15.2896C3.02634 15.1507 2.95036 14.9799 2.85343 14.8703C3.0403 15.0933 2.75167 15.3002 2.61232 15.5323H2.61286Z" fill="#36A271"/>
<path d="M3.0278 17.5398C2.89919 17.5692 2.77756 17.606 2.64439 17.6126C2.26849 17.6314 1.90172 17.4375 1.63913 17.1834C1.74331 17.1703 1.82574 17.1335 1.93475 17.1457C2.02255 17.1556 2.21183 17.2256 2.30179 17.2585C2.50584 17.3332 2.70775 17.415 2.91127 17.4915C2.95047 17.506 2.98834 17.5252 3.02753 17.5398H3.0278Z" fill="#36A271"/>
<path d="M2.08553 16.8783C2.51244 16.8522 2.86685 17.0756 2.99654 17.4851C2.90472 17.4556 2.81155 17.4299 2.72079 17.3969C2.67327 17.3797 2.32772 17.2439 2.30945 17.2312C2.252 17.1914 2.18567 17.0379 2.14433 16.9749C2.11963 16.9444 2.04445 16.8947 2.04149 16.889C2.0364 16.8791 2.08203 16.8857 2.08579 16.8783H2.08553Z" fill="#36A271"/>
<path d="M2.08533 16.8786C2.08157 16.886 2.03592 16.8794 2.04102 16.8892C2.04398 16.895 2.11943 16.9447 2.14386 16.9753C2.18548 17.0379 2.25179 17.1914 2.30898 17.2315C2.32724 17.2443 2.67279 17.3797 2.72033 17.3972C2.81134 17.4305 2.90451 17.4562 2.99607 17.4853C3.07161 17.5098 3.14714 17.5342 3.22269 17.5584L3.20872 17.5964C3.14831 17.5773 3.08655 17.5614 3.02721 17.5395C2.98802 17.525 2.95016 17.5058 2.91095 17.4912C2.70743 17.4147 2.50553 17.3333 2.30147 17.2583C2.21152 17.2254 2.02223 17.1553 1.93443 17.1455C1.82542 17.1333 1.74272 17.1699 1.63881 17.1832C1.529 17.077 1.40495 16.9256 1.3483 16.7843C1.46859 17.0623 1.80072 16.8962 2.08506 16.8786H2.08533Z" fill="#36A271"/>
<path d="M3.30538 17.3674C3.38861 17.2731 3.47454 17.1879 3.54005 17.0796C3.72558 16.7736 3.72478 16.3798 3.6257 16.0458C3.56771 16.127 3.49897 16.1794 3.46031 16.276C3.42916 16.3538 3.40392 16.5437 3.39157 16.6337C3.36365 16.8379 3.34243 17.0437 3.31612 17.2482C3.31102 17.2875 3.31049 17.3278 3.30511 17.3671L3.30538 17.3674Z" fill="#36A271"/>
<path d="M3.16465 16.2824C2.95013 16.6277 2.98154 17.0247 3.27313 17.3174C3.28924 17.2274 3.30937 17.1378 3.32199 17.047C3.32871 16.9995 3.36817 16.6495 3.36549 16.6285C3.35716 16.5626 3.25594 16.4378 3.22104 16.3748C3.20601 16.3403 3.19741 16.2554 3.19391 16.25C3.18774 16.2413 3.17271 16.2824 3.16492 16.2824H3.16465Z" fill="#36A271"/>
<path d="M3.16492 16.2822C3.1727 16.2822 3.18774 16.241 3.19391 16.2497C3.19767 16.255 3.206 16.3403 3.22103 16.3746C3.25593 16.4375 3.35743 16.562 3.36548 16.6281C3.36816 16.6492 3.32843 16.9992 3.32199 17.0467C3.30936 17.1375 3.2895 17.2273 3.27311 17.317C3.25987 17.3912 3.24671 17.4653 3.23364 17.5394L3.27258 17.5449C3.28359 17.486 3.29755 17.4269 3.30561 17.3675C3.31098 17.3281 3.31151 17.288 3.31662 17.2485C3.34292 17.0438 3.36387 16.8382 3.39207 16.634C3.40442 16.5438 3.42965 16.3542 3.46079 16.2763C3.49946 16.1797 3.5682 16.1271 3.62619 16.0461C3.58485 15.9064 3.51127 15.7346 3.41596 15.6235C3.59961 15.8496 3.30775 16.0522 3.16492 16.2822Z" fill="#36A271"/>
<path d="M3.58511 18.2089C3.46562 18.2502 3.35366 18.2971 3.22774 18.3167C2.8717 18.3726 2.50279 18.2247 2.22678 18.0093C2.32451 17.9864 2.39941 17.9432 2.5044 17.9436C2.58898 17.9442 2.77639 17.9921 2.86553 18.0144C3.06744 18.0651 3.268 18.1224 3.46965 18.1747C3.50859 18.1848 3.54644 18.1991 3.58511 18.2089Z" fill="#36A271"/>
<path d="M2.62065 17.6746C3.02447 17.6069 3.3848 17.7838 3.55019 18.1606C3.45971 18.142 3.36842 18.1266 3.27848 18.1042C3.23149 18.0926 2.88862 17.998 2.86981 17.988C2.81101 17.9559 2.73208 17.8162 2.68617 17.7607C2.65958 17.7338 2.58279 17.6945 2.57931 17.6889C2.5734 17.6799 2.6177 17.6818 2.62039 17.6744L2.62065 17.6746Z" fill="#36A271"/>
<path d="M2.62055 17.6743C2.61787 17.6817 2.57356 17.6799 2.57947 17.6889C2.58297 17.6942 2.65975 17.7338 2.68634 17.7606C2.73224 17.8161 2.81119 17.9556 2.86999 17.9879C2.88851 17.998 3.23139 18.0926 3.27864 18.1043C3.36859 18.1266 3.45987 18.1417 3.55036 18.1606C3.62482 18.1762 3.6992 18.1918 3.77348 18.2073L3.76409 18.245C3.70474 18.233 3.64434 18.224 3.58554 18.2091C3.54687 18.1993 3.50875 18.1849 3.47008 18.1749C3.26843 18.1226 3.06787 18.0652 2.86596 18.0145C2.77682 17.9922 2.58941 17.9444 2.50483 17.9439C2.39984 17.9431 2.32494 17.9867 2.22721 18.0094C2.11175 17.9194 1.97804 17.7877 1.90984 17.659C2.05295 17.9114 2.35205 17.7197 2.62082 17.6746L2.62055 17.6743Z" fill="#36A271"/>
<path d="M3.89499 17.965C3.97312 17.8659 4.0542 17.7759 4.11381 17.6638C4.28216 17.3473 4.25933 16.9529 4.1412 16.624C4.08777 16.7083 4.02199 16.7649 3.98869 16.8637C3.96184 16.9433 3.94735 17.1348 3.9401 17.2256C3.92372 17.4318 3.91405 17.6388 3.89929 17.8452C3.89633 17.8851 3.89794 17.9252 3.89499 17.965Z" fill="#36A271"/>
<path d="M3.69337 16.8849C3.4979 17.2426 3.55188 17.6384 3.86038 17.9154C3.87165 17.8242 3.88642 17.7337 3.89394 17.6417C3.89797 17.5937 3.91783 17.241 3.91408 17.2203C3.902 17.1547 3.79352 17.0356 3.75513 16.9744C3.73795 16.9407 3.72478 16.856 3.72076 16.8509C3.71404 16.8425 3.70142 16.8846 3.69364 16.8849H3.69337Z" fill="#36A271"/>
<path d="M3.69344 16.8859C3.7015 16.8859 3.71412 16.8434 3.72056 16.852C3.72459 16.8569 3.73774 16.942 3.75493 16.9754C3.79332 17.0365 3.90206 17.1557 3.91388 17.2214C3.91764 17.2421 3.89776 17.5947 3.89374 17.6428C3.88622 17.7344 3.87146 17.8252 3.86018 17.9163C3.85123 17.9912 3.84219 18.0662 3.83306 18.1413C3.84613 18.1423 3.85919 18.1435 3.87226 18.1446C3.87978 18.0849 3.89079 18.0255 3.89535 17.9652C3.8983 17.9255 3.89669 17.8852 3.89965 17.8453C3.91441 17.6391 3.92381 17.4319 3.94046 17.2259C3.94771 17.1347 3.96247 16.9436 3.98906 16.8639C4.02235 16.7648 4.08813 16.7086 4.14156 16.6241C4.09216 16.4865 4.00892 16.3185 3.90717 16.2127C4.10371 16.4289 3.82312 16.648 3.6929 16.8862L3.69344 16.8859Z" fill="#36A271"/>
<path d="M4.28216 18.8468C4.16993 18.9004 4.06576 18.9588 3.94467 18.9921C3.6026 19.0864 3.22482 18.9827 2.93001 18.8027C3.02318 18.7693 3.09138 18.7186 3.19422 18.7076C3.27718 18.6986 3.46566 18.7243 3.55562 18.7364C3.75914 18.7634 3.96186 18.7971 4.1651 18.8258C4.2043 18.8313 4.24297 18.8412 4.28216 18.8465V18.8468Z" fill="#36A271"/>
<path d="M3.27711 18.4322C3.66455 18.3209 4.03749 18.4537 4.24235 18.8043C4.15187 18.7961 4.06058 18.7912 3.9701 18.7795C3.92257 18.7734 3.57648 18.7192 3.55715 18.7113C3.49593 18.6863 3.40276 18.5586 3.35147 18.5095C3.32248 18.4864 3.24274 18.4561 3.23871 18.4513C3.232 18.4431 3.27549 18.4399 3.27738 18.4324L3.27711 18.4322Z" fill="#36A271"/>
<path d="M3.27782 18.4321C3.27595 18.4395 3.23244 18.4427 3.23915 18.4509C3.24319 18.4558 3.32293 18.486 3.35193 18.5091C3.40322 18.5582 3.49639 18.6859 3.5576 18.7109C3.57693 18.7189 3.92329 18.7731 3.97055 18.7792C4.06103 18.7911 4.15232 18.7956 4.24281 18.8039C4.31744 18.8107 4.39209 18.8178 4.46673 18.8248L4.4619 18.8628C4.40229 18.8575 4.34215 18.8557 4.28308 18.8477C4.24388 18.8424 4.20521 18.8326 4.16601 18.8269C3.96277 18.7982 3.75978 18.7643 3.55653 18.7375C3.46684 18.7256 3.27809 18.6998 3.19513 18.7088C3.09229 18.7199 3.02382 18.7706 2.93092 18.8039C2.80768 18.7285 2.66188 18.6148 2.58026 18.4963C2.74915 18.7276 3.0198 18.5067 3.27782 18.4323V18.4321Z" fill="#36A271"/>
<path d="M4.56858 18.5373C4.63516 18.4313 4.70578 18.3339 4.75304 18.2171C4.88594 17.8869 4.8215 17.4995 4.6698 17.1867C4.62577 17.2756 4.56697 17.3383 4.54441 17.4394C4.52643 17.521 4.53233 17.7117 4.53474 17.8022C4.54038 18.0075 4.55273 18.2133 4.55999 18.4186C4.56133 18.4581 4.56724 18.4977 4.56831 18.5373H4.56858Z" fill="#36A271"/>
<path d="M4.25462 17.4925C4.09942 17.8661 4.19447 18.2517 4.52875 18.4934C4.53009 18.4023 4.5352 18.3112 4.53304 18.2196C4.53197 18.1718 4.51398 17.8213 4.50807 17.801C4.48928 17.7374 4.36926 17.6308 4.32496 17.5746C4.30455 17.5429 4.28253 17.4606 4.27798 17.4561C4.27045 17.4484 4.2624 17.4915 4.25462 17.4925Z" fill="#36A271"/>
<path d="M4.25444 17.4919C4.26223 17.4909 4.27029 17.4479 4.2778 17.4556C4.28237 17.4601 4.30439 17.5426 4.32479 17.5741C4.36936 17.6304 4.48912 17.7368 4.50791 17.8006C4.51381 17.8208 4.53154 18.1712 4.53288 18.2191C4.53529 18.3104 4.5302 18.4018 4.52858 18.4928L4.52563 18.7178L4.56483 18.717C4.5659 18.6572 4.57047 18.5973 4.56858 18.5372C4.56751 18.4977 4.56161 18.458 4.56027 18.4185C4.55302 18.213 4.54039 18.0074 4.53502 17.8022C4.53261 17.7116 4.5267 17.5209 4.54469 17.4393C4.56698 17.3382 4.62604 17.2755 4.67008 17.1865C4.60672 17.0556 4.50657 16.8982 4.39486 16.8042C4.61209 16.9973 4.35782 17.2429 4.25444 17.4917V17.4919Z" fill="#36A271"/>
<path d="M16.9104 12.1841C16.861 11.1622 16.6062 10.156 16.1598 9.2218C15.7234 8.3027 15.0935 7.45132 14.3229 6.76007C13.5534 6.06484 12.6432 5.51885 11.6581 5.16566C10.6711 4.81937 9.6132 4.6611 8.56311 4.71873C7.51059 4.77848 6.48332 5.05412 5.53579 5.52071C4.61134 5.98279 3.76129 6.63261 3.08762 7.41627C2.41558 8.20312 1.89898 9.1161 1.59478 10.0912C1.28466 11.0642 1.18048 12.0938 1.28251 13.0952C1.36467 13.8297 1.53731 14.5133 1.82139 15.1687C1.86676 15.1405 1.92314 15.1235 1.99027 15.1235C1.99269 15.1235 1.9951 15.1239 1.99752 15.1239C1.51422 13.5201 1.59424 11.8126 2.18654 10.2941C2.86584 8.5356 4.22632 7.083 5.93451 6.3073C7.61181 5.52683 9.60003 5.39457 11.3694 5.98862C12.256 6.27649 13.0883 6.7375 13.7991 7.34324C14.5109 7.9511 15.0954 8.69414 15.5231 9.53702C15.9417 10.3645 16.2014 11.2881 16.2664 12.2213C16.3335 13.1563 16.2113 14.1065 15.9097 14.9998C15.6085 15.8935 15.1279 16.7299 14.501 17.444C13.8747 18.1592 13.1017 18.7495 12.2415 19.1742C11.3831 19.6025 10.4375 19.8648 9.47304 19.9347C8.50913 20.0056 7.52777 19.8858 6.60387 19.5841C5.6797 19.283 4.81326 18.8005 4.07194 18.1687C3.3298 17.5377 2.69857 16.7663 2.25528 15.8958C2.25098 15.8859 2.17849 15.7785 2.14358 15.7245C2.14171 15.7256 2.05309 15.5848 2.05122 15.5859L2.19433 15.9221C2.61507 16.8138 3.21382 17.6323 3.95353 18.3001C4.6927 18.9696 5.56881 19.4936 6.51607 19.8338C7.46333 20.1742 8.48067 20.3307 9.49371 20.286C10.5068 20.243 11.5128 19.9969 12.4357 19.57C13.3571 19.141 14.1962 18.5304 14.8836 17.7803C15.572 17.0308 16.1092 16.1441 16.4561 15.1873C16.8033 14.2308 16.9601 13.2044 16.9102 12.1841H16.9104Z" fill="#36A271"/>
<path d="M16.758 12.462C16.7098 11.4601 16.4598 10.4733 16.0218 9.55736C15.5941 8.65606 14.9763 7.82141 14.2208 7.14344C13.4663 6.46148 12.5735 5.92638 11.6078 5.57984C10.6401 5.24044 9.60261 5.0851 8.57292 5.14139C7.54108 5.20008 6.53341 5.47016 5.60468 5.92771C4.69822 6.38076 3.86454 7.0181 3.20404 7.78663C2.54514 8.55807 2.03849 9.45326 1.74019 10.4095C1.43598 11.3634 1.33395 12.3731 1.43383 13.3551C1.51438 14.0753 1.6838 14.7456 1.96223 15.3882C2.00681 15.3606 2.06184 15.3442 2.12789 15.3442C2.13031 15.3442 2.13246 15.3444 2.13488 15.3444C1.66098 13.772 1.73938 12.0977 2.32014 10.6084C2.98629 8.88418 4.32045 7.45972 5.99534 6.69916C7.63989 5.93409 9.58972 5.80422 11.3248 6.3866C12.1938 6.66889 13.0101 7.12087 13.7071 7.71493C14.405 8.31083 14.9782 9.03952 15.3978 9.86594C15.8084 10.6772 16.063 11.5828 16.1266 12.4982C16.1924 13.4151 16.0726 14.3467 15.7769 15.2228C15.4814 16.0992 15.0105 16.9191 14.3955 17.6195C13.7816 18.3207 13.0238 18.8998 12.18 19.3161C11.3382 19.7362 10.4111 19.9933 9.46513 20.0617C8.51976 20.1314 7.55773 20.014 6.65182 19.7182C5.74564 19.4229 4.89611 18.9497 4.16929 18.3301C3.44139 17.7113 2.82249 16.9547 2.3878 16.1013C2.38377 16.0914 2.31262 15.9861 2.27852 15.9335C2.27665 15.9345 2.18965 15.7964 2.18804 15.7975L2.32847 16.127C2.74087 17.0013 3.32808 17.8038 4.05357 18.4589C4.77824 19.1154 5.63744 19.6292 6.56644 19.9627C7.49517 20.2965 8.49291 20.45 9.48608 20.4062C10.4793 20.364 11.466 20.1226 12.3708 19.7041C13.2743 19.2832 14.0971 18.6848 14.7712 17.949C15.4462 17.2139 15.973 16.3445 16.3132 15.4066C16.6536 14.4686 16.8075 13.4621 16.7586 12.4618L16.758 12.462Z" fill="#36A271"/>
<path d="M16.392 12.4145C16.3444 11.4314 16.0993 10.4637 15.6696 9.56501C15.25 8.68097 14.644 7.86199 13.903 7.19703C13.1627 6.52809 12.2872 6.00309 11.3396 5.66316C10.3902 5.33016 9.37261 5.17772 8.36253 5.23322C7.35029 5.29086 6.36194 5.55588 5.45066 6.00467C4.56139 6.44921 3.74355 7.07434 3.09567 7.82826C2.44939 8.5851 1.95214 9.4633 1.65973 10.4013C1.36143 11.3371 1.26129 12.3276 1.35929 13.2908C1.43822 13.9972 1.60443 14.655 1.87776 15.2855C1.92152 15.2583 1.9755 15.2421 2.0402 15.2421C2.04262 15.2421 2.04477 15.2424 2.04718 15.2424C1.58214 13.6998 1.6592 12.0573 2.22895 10.5964C2.88248 8.90484 4.19114 7.50773 5.83435 6.76151C7.44775 6.01078 9.36026 5.88358 11.0625 6.45506C11.9153 6.73177 12.7159 7.17526 13.3995 7.75815C14.0842 8.34292 14.6465 9.05754 15.0581 9.86828C15.4607 10.6642 15.7105 11.5527 15.7727 12.4506C15.8375 13.35 15.7199 14.2638 15.4296 15.1235C15.1397 15.983 14.6776 16.7877 14.0746 17.4747C13.4724 18.1628 12.7288 18.7305 11.9011 19.1389C11.0754 19.5511 10.1658 19.8034 9.23783 19.8705C8.31044 19.9388 7.36667 19.8236 6.47793 19.5335C5.58894 19.2439 4.75552 18.7796 4.04265 18.1718C3.32872 17.5647 2.72165 16.8227 2.295 15.9855C2.29098 15.9759 2.22117 15.8726 2.18761 15.8208C2.18573 15.8218 2.10061 15.6864 2.09874 15.6875L2.23647 16.0107C2.6411 16.8684 3.21703 17.6555 3.92882 18.2984C4.6398 18.9424 5.48261 19.4464 6.3939 19.7737C7.30491 20.101 8.28358 20.2516 9.25823 20.2086C10.2326 20.1672 11.2003 19.9306 12.0882 19.5198C12.9745 19.1068 13.7816 18.5199 14.443 17.7979C15.1051 17.0768 15.6219 16.2238 15.9557 15.3037C16.2897 14.3836 16.4406 13.3962 16.3924 12.415L16.392 12.4145Z" fill="#36A271"/>
</g>
<path d="M27.897 11.971L26.511 9.4135H26.4615V19H25.1085V7.483H26.709L30.9165 14.512L32.3025 17.0695H32.352V7.483H33.705V19H32.1045L27.897 11.971ZM41.0645 17.614H40.9985C40.9105 17.812 40.8005 18.01 40.6685 18.208C40.5475 18.395 40.3935 18.5655 40.2065 18.7195C40.0195 18.8625 39.794 18.978 39.53 19.066C39.266 19.154 38.958 19.198 38.606 19.198C37.726 19.198 37.0275 18.9175 36.5105 18.3565C35.9935 17.7845 35.735 16.9815 35.735 15.9475V10.486H37.055V15.7165C37.055 17.2455 37.704 18.01 39.002 18.01C39.266 18.01 39.519 17.977 39.761 17.911C40.014 17.845 40.234 17.746 40.421 17.614C40.619 17.482 40.773 17.317 40.883 17.119C41.004 16.91 41.0645 16.6625 41.0645 16.3765V10.486H42.3845V19H41.0645V17.614ZM44.3705 19V10.486H45.6905V11.872H45.7565C45.8555 11.652 45.9655 11.4485 46.0865 11.2615C46.2185 11.0635 46.3725 10.893 46.5485 10.75C46.7355 10.607 46.95 10.497 47.192 10.42C47.434 10.332 47.72 10.288 48.05 10.288C48.611 10.288 49.128 10.4255 49.601 10.7005C50.074 10.9645 50.426 11.4045 50.657 12.0205H50.69C50.844 11.5585 51.13 11.157 51.548 10.816C51.977 10.464 52.5545 10.288 53.2805 10.288C54.1495 10.288 54.826 10.574 55.31 11.146C55.805 11.707 56.0525 12.5045 56.0525 13.5385V19H54.7325V13.7695C54.7325 13.0105 54.584 12.4385 54.287 12.0535C53.99 11.6685 53.517 11.476 52.868 11.476C52.604 11.476 52.351 11.509 52.109 11.575C51.878 11.641 51.669 11.74 51.482 11.872C51.295 12.004 51.1465 12.1745 51.0365 12.3835C50.9265 12.5815 50.8715 12.818 50.8715 13.093V19H49.5515V13.7695C49.5515 13.0105 49.403 12.4385 49.106 12.0535C48.809 11.6685 48.347 11.476 47.72 11.476C47.456 11.476 47.203 11.509 46.961 11.575C46.719 11.641 46.5045 11.74 46.3175 11.872C46.1305 12.004 45.9765 12.1745 45.8555 12.3835C45.7455 12.5815 45.6905 12.818 45.6905 13.093V19H44.3705ZM64.1382 19C63.6432 19 63.2857 18.868 63.0657 18.604C62.8567 18.34 62.7247 18.01 62.6697 17.614H62.5872C62.4002 18.142 62.0922 18.538 61.6632 18.802C61.2342 19.066 60.7227 19.198 60.1287 19.198C59.2267 19.198 58.5227 18.967 58.0167 18.505C57.5217 18.043 57.2742 17.416 57.2742 16.624C57.2742 15.821 57.5657 15.205 58.1487 14.776C58.7427 14.347 59.6612 14.1325 60.9042 14.1325H62.5872V13.291C62.5872 12.686 62.4222 12.224 62.0922 11.905C61.7622 11.586 61.2562 11.4265 60.5742 11.4265C60.0572 11.4265 59.6227 11.542 59.2707 11.773C58.9297 12.004 58.6437 12.312 58.4127 12.697L57.6207 11.9545C57.8517 11.4925 58.2202 11.102 58.7262 10.783C59.2322 10.453 59.8702 10.288 60.6402 10.288C61.6742 10.288 62.4772 10.541 63.0492 11.047C63.6212 11.553 63.9072 12.257 63.9072 13.159V17.845H64.8807V19H64.1382ZM60.3432 18.076C60.6732 18.076 60.9757 18.0375 61.2507 17.9605C61.5257 17.8835 61.7622 17.7735 61.9602 17.6305C62.1582 17.4875 62.3122 17.3225 62.4222 17.1355C62.5322 16.9485 62.5872 16.745 62.5872 16.525V15.1225H60.8382C60.0792 15.1225 59.5237 15.2325 59.1717 15.4525C58.8307 15.6725 58.6602 15.9915 58.6602 16.4095V16.756C58.6602 17.174 58.8087 17.4985 59.1057 17.7295C59.4137 17.9605 59.8262 18.076 60.3432 18.076ZM65.9397 19V10.486H67.2597V11.872H67.3257C67.5347 11.388 67.8262 11.003 68.2002 10.717C68.5852 10.431 69.0967 10.288 69.7347 10.288C70.6147 10.288 71.3077 10.574 71.8137 11.146C72.3307 11.707 72.5892 12.5045 72.5892 13.5385V19H71.2692V13.7695C71.2692 12.2405 70.6257 11.476 69.3387 11.476C69.0747 11.476 68.8162 11.509 68.5632 11.575C68.3212 11.641 68.1012 11.74 67.9032 11.872C67.7052 12.004 67.5457 12.1745 67.4247 12.3835C67.3147 12.5815 67.2597 12.818 67.2597 13.093V19H65.9397ZM80.6801 19C80.1851 19 79.8276 18.868 79.6076 18.604C79.3986 18.34 79.2666 18.01 79.2116 17.614H79.1291C78.9421 18.142 78.6341 18.538 78.2051 18.802C77.7761 19.066 77.2646 19.198 76.6706 19.198C75.7686 19.198 75.0646 18.967 74.5586 18.505C74.0636 18.043 73.8161 17.416 73.8161 16.624C73.8161 15.821 74.1076 15.205 74.6906 14.776C75.2846 14.347 76.2031 14.1325 77.4461 14.1325H79.1291V13.291C79.1291 12.686 78.9641 12.224 78.6341 11.905C78.3041 11.586 77.7981 11.4265 77.1161 11.4265C76.5991 11.4265 76.1646 11.542 75.8126 11.773C75.4716 12.004 75.1856 12.312 74.9546 12.697L74.1626 11.9545C74.3936 11.4925 74.7621 11.102 75.2681 10.783C75.7741 10.453 76.4121 10.288 77.1821 10.288C78.2161 10.288 79.0191 10.541 79.5911 11.047C80.1631 11.553 80.4491 12.257 80.4491 13.159V17.845H81.4226V19H80.6801ZM76.8851 18.076C77.2151 18.076 77.5176 18.0375 77.7926 17.9605C78.0676 17.8835 78.3041 17.7735 78.5021 17.6305C78.7001 17.4875 78.8541 17.3225 78.9641 17.1355C79.0741 16.9485 79.1291 16.745 79.1291 16.525V15.1225H77.3801C76.6211 15.1225 76.0656 15.2325 75.7136 15.4525C75.3726 15.6725 75.2021 15.9915 75.2021 16.4095V16.756C75.2021 17.174 75.3506 17.4985 75.6476 17.7295C75.9556 17.9605 76.3681 18.076 76.8851 18.076ZM85.6496 19.198C85.0556 19.198 84.5221 19.0935 84.0491 18.8845C83.5761 18.6755 83.1746 18.3785 82.8446 17.9935C82.5256 17.6085 82.2781 17.141 82.1021 16.591C81.9371 16.041 81.8546 15.425 81.8546 14.743C81.8546 14.061 81.9371 13.445 82.1021 12.895C82.2781 12.345 82.5256 11.8775 82.8446 11.4925C83.1746 11.1075 83.5761 10.8105 84.0491 10.6015C84.5221 10.3925 85.0556 10.288 85.6496 10.288C86.4966 10.288 87.1731 10.475 87.6791 10.849C88.1961 11.212 88.5811 11.6905 88.8341 12.2845L87.7286 12.8455C87.5746 12.4055 87.3216 12.0645 86.9696 11.8225C86.6176 11.5805 86.1776 11.4595 85.6496 11.4595C85.2536 11.4595 84.9071 11.5255 84.6101 11.6575C84.3131 11.7785 84.0656 11.9545 83.8676 12.1855C83.6696 12.4055 83.5211 12.675 83.4221 12.994C83.3231 13.302 83.2736 13.643 83.2736 14.017V15.469C83.2736 16.217 83.4716 16.833 83.8676 17.317C84.2746 17.79 84.8686 18.0265 85.6496 18.0265C86.7166 18.0265 87.4866 17.5315 87.9596 16.5415L88.9166 17.185C88.6416 17.801 88.2291 18.2905 87.6791 18.6535C87.1401 19.0165 86.4636 19.198 85.6496 19.198Z" fill="black"/>
<path d="M99.6707 17.785H99.6107C99.5407 17.965 99.4457 18.14 99.3257 18.31C99.2057 18.48 99.0557 18.63 98.8757 18.76C98.6957 18.88 98.4807 18.98 98.2307 19.06C97.9907 19.14 97.7057 19.18 97.3757 19.18C96.5557 19.18 95.9157 18.93 95.4557 18.43C94.9957 17.92 94.7657 17.195 94.7657 16.255V11.32H95.6207V16.09C95.6207 16.88 95.7907 17.465 96.1307 17.845C96.4707 18.225 96.9607 18.415 97.6007 18.415C97.8707 18.415 98.1257 18.38 98.3657 18.31C98.6157 18.24 98.8357 18.135 99.0257 17.995C99.2257 17.855 99.3807 17.68 99.4907 17.47C99.6107 17.25 99.6707 16.995 99.6707 16.705V11.32H100.526V19H99.6707V17.785ZM104.748 19.18C104.078 19.18 103.503 19.055 103.023 18.805C102.553 18.555 102.143 18.19 101.793 17.71L102.423 17.215C102.743 17.635 103.093 17.945 103.473 18.145C103.853 18.345 104.298 18.445 104.808 18.445C105.398 18.445 105.853 18.32 106.173 18.07C106.493 17.82 106.653 17.46 106.653 16.99C106.653 16.58 106.528 16.26 106.278 16.03C106.038 15.79 105.638 15.63 105.078 15.55L104.448 15.445C104.098 15.395 103.778 15.32 103.488 15.22C103.198 15.12 102.948 14.985 102.738 14.815C102.538 14.645 102.378 14.44 102.258 14.2C102.148 13.95 102.093 13.65 102.093 13.3C102.093 12.94 102.158 12.625 102.288 12.355C102.428 12.085 102.613 11.86 102.843 11.68C103.073 11.5 103.348 11.365 103.668 11.275C103.988 11.185 104.333 11.14 104.703 11.14C105.343 11.14 105.868 11.25 106.278 11.47C106.688 11.69 107.038 11.975 107.328 12.325L106.758 12.85C106.558 12.61 106.288 12.39 105.948 12.19C105.618 11.98 105.188 11.875 104.658 11.875C104.108 11.875 103.678 11.995 103.368 12.235C103.068 12.475 102.918 12.815 102.918 13.255C102.918 13.705 103.053 14.03 103.323 14.23C103.603 14.43 104.018 14.575 104.568 14.665L105.183 14.755C105.963 14.875 106.538 15.11 106.908 15.46C107.288 15.8 107.478 16.28 107.478 16.9C107.478 17.62 107.233 18.18 106.743 18.58C106.263 18.98 105.598 19.18 104.748 19.18ZM111.716 19.18C111.206 19.18 110.741 19.09 110.321 18.91C109.911 18.73 109.556 18.47 109.256 18.13C108.966 17.78 108.741 17.355 108.581 16.855C108.431 16.355 108.356 15.79 108.356 15.16C108.356 14.53 108.431 13.97 108.581 13.48C108.741 12.98 108.966 12.56 109.256 12.22C109.556 11.87 109.911 11.605 110.321 11.425C110.731 11.235 111.191 11.14 111.701 11.14C112.191 11.14 112.636 11.235 113.036 11.425C113.436 11.605 113.776 11.86 114.056 12.19C114.336 12.52 114.551 12.92 114.701 13.39C114.861 13.85 114.941 14.36 114.941 14.92V15.325H109.256V15.7C109.256 16.1 109.311 16.47 109.421 16.81C109.541 17.14 109.706 17.425 109.916 17.665C110.136 17.905 110.401 18.095 110.711 18.235C111.021 18.365 111.371 18.43 111.761 18.43C112.881 18.43 113.656 17.915 114.086 16.885L114.716 17.305C114.476 17.875 114.096 18.33 113.576 18.67C113.066 19.01 112.446 19.18 111.716 19.18ZM111.701 11.86C111.331 11.86 110.996 11.93 110.696 12.07C110.396 12.2 110.136 12.385 109.916 12.625C109.706 12.865 109.541 13.155 109.421 13.495C109.311 13.825 109.256 14.19 109.256 14.59V14.665H114.011V14.545C114.011 14.145 113.956 13.78 113.846 13.45C113.736 13.11 113.576 12.825 113.366 12.595C113.166 12.365 112.921 12.185 112.631 12.055C112.351 11.925 112.041 11.86 111.701 11.86ZM116.366 19V11.32H117.221V12.7H117.281C117.431 12.34 117.686 12.02 118.046 11.74C118.406 11.46 118.916 11.32 119.576 11.32H120.086V12.16H119.411C118.771 12.16 118.246 12.3 117.836 12.58C117.426 12.86 117.221 13.25 117.221 13.75V19H116.366ZM130.072 19.9C130.072 20.68 129.757 21.255 129.127 21.625C128.507 21.995 127.592 22.18 126.382 22.18C125.212 22.18 124.367 22.01 123.847 21.67C123.327 21.33 123.067 20.86 123.067 20.26C123.067 19.82 123.182 19.47 123.412 19.21C123.642 18.95 123.967 18.76 124.387 18.64V18.52C123.907 18.33 123.667 17.98 123.667 17.47C123.667 17.09 123.792 16.8 124.042 16.6C124.292 16.4 124.602 16.25 124.972 16.15V16.09C124.522 15.89 124.172 15.59 123.922 15.19C123.672 14.79 123.547 14.31 123.547 13.75C123.547 13.36 123.612 13.005 123.742 12.685C123.872 12.365 124.057 12.09 124.297 11.86C124.547 11.63 124.842 11.455 125.182 11.335C125.532 11.205 125.917 11.14 126.337 11.14C126.927 11.14 127.442 11.265 127.882 11.515V11.14C127.882 10.91 127.937 10.725 128.047 10.585C128.157 10.435 128.337 10.36 128.587 10.36H129.907V11.11H128.347V11.845C128.607 12.075 128.807 12.355 128.947 12.685C129.087 13.005 129.157 13.36 129.157 13.75C129.157 14.14 129.087 14.495 128.947 14.815C128.817 15.135 128.627 15.415 128.377 15.655C128.137 15.885 127.842 16.065 127.492 16.195C127.152 16.315 126.772 16.375 126.352 16.375C126.212 16.375 126.077 16.365 125.947 16.345C125.817 16.325 125.687 16.305 125.557 16.285C125.227 16.375 124.952 16.5 124.732 16.66C124.522 16.81 124.417 17.015 124.417 17.275C124.417 17.735 124.827 17.965 125.647 17.965H127.432C128.362 17.965 129.032 18.14 129.442 18.49C129.862 18.83 130.072 19.3 130.072 19.9ZM129.247 19.96C129.247 19.59 129.112 19.295 128.842 19.075C128.582 18.865 128.112 18.76 127.432 18.76H124.942C124.612 18.87 124.352 19.035 124.162 19.255C123.972 19.475 123.877 19.75 123.877 20.08C123.877 20.48 124.042 20.81 124.372 21.07C124.702 21.34 125.202 21.475 125.872 21.475H126.832C127.582 21.475 128.172 21.35 128.602 21.1C129.032 20.86 129.247 20.48 129.247 19.96ZM126.352 15.685C126.942 15.685 127.402 15.54 127.732 15.25C128.072 14.95 128.242 14.53 128.242 13.99V13.51C128.242 12.98 128.072 12.57 127.732 12.28C127.402 11.98 126.942 11.83 126.352 11.83C125.752 11.83 125.287 11.98 124.957 12.28C124.627 12.57 124.462 12.98 124.462 13.51V13.99C124.462 14.53 124.627 14.95 124.957 15.25C125.297 15.54 125.762 15.685 126.352 15.685ZM135.703 17.785H135.643C135.573 17.965 135.478 18.14 135.358 18.31C135.238 18.48 135.088 18.63 134.908 18.76C134.728 18.88 134.513 18.98 134.263 19.06C134.023 19.14 133.738 19.18 133.408 19.18C132.588 19.18 131.948 18.93 131.488 18.43C131.028 17.92 130.798 17.195 130.798 16.255V11.32H131.653V16.09C131.653 16.88 131.823 17.465 132.163 17.845C132.503 18.225 132.993 18.415 133.633 18.415C133.903 18.415 134.158 18.38 134.398 18.31C134.648 18.24 134.868 18.135 135.058 17.995C135.258 17.855 135.413 17.68 135.523 17.47C135.643 17.25 135.703 16.995 135.703 16.705V11.32H136.558V19H135.703V17.785ZM139.025 9.235C138.825 9.235 138.675 9.185 138.575 9.085C138.485 8.985 138.44 8.855 138.44 8.695V8.545C138.44 8.385 138.485 8.255 138.575 8.155C138.675 8.055 138.825 8.005 139.025 8.005C139.225 8.005 139.37 8.055 139.46 8.155C139.56 8.255 139.61 8.385 139.61 8.545V8.695C139.61 8.855 139.56 8.985 139.46 9.085C139.37 9.185 139.225 9.235 139.025 9.235ZM138.605 11.32H139.46V19H138.605V11.32ZM146.468 17.77H146.423C146.223 18.2 145.928 18.545 145.538 18.805C145.158 19.055 144.673 19.18 144.083 19.18C143.093 19.18 142.318 18.83 141.758 18.13C141.198 17.43 140.918 16.44 140.918 15.16C140.918 13.88 141.198 12.89 141.758 12.19C142.318 11.49 143.093 11.14 144.083 11.14C144.673 11.14 145.163 11.27 145.553 11.53C145.943 11.78 146.233 12.12 146.423 12.55H146.468V7.9H147.323V19H146.468V17.77ZM144.278 18.415C144.578 18.415 144.858 18.375 145.118 18.295C145.388 18.215 145.623 18.1 145.823 17.95C146.023 17.79 146.178 17.605 146.288 17.395C146.408 17.175 146.468 16.93 146.468 16.66V13.615C146.468 13.365 146.408 13.135 146.288 12.925C146.178 12.715 146.023 12.535 145.823 12.385C145.623 12.235 145.388 12.12 145.118 12.04C144.858 11.95 144.578 11.905 144.278 11.905C143.508 11.905 142.908 12.15 142.478 12.64C142.048 13.13 141.833 13.79 141.833 14.62V15.7C141.833 16.53 142.048 17.19 142.478 17.68C142.908 18.17 143.508 18.415 144.278 18.415ZM152.111 19.18C151.601 19.18 151.136 19.09 150.716 18.91C150.306 18.73 149.951 18.47 149.651 18.13C149.361 17.78 149.136 17.355 148.976 16.855C148.826 16.355 148.751 15.79 148.751 15.16C148.751 14.53 148.826 13.97 148.976 13.48C149.136 12.98 149.361 12.56 149.651 12.22C149.951 11.87 150.306 11.605 150.716 11.425C151.126 11.235 151.586 11.14 152.096 11.14C152.586 11.14 153.031 11.235 153.431 11.425C153.831 11.605 154.171 11.86 154.451 12.19C154.731 12.52 154.946 12.92 155.096 13.39C155.256 13.85 155.336 14.36 155.336 14.92V15.325H149.651V15.7C149.651 16.1 149.706 16.47 149.816 16.81C149.936 17.14 150.101 17.425 150.311 17.665C150.531 17.905 150.796 18.095 151.106 18.235C151.416 18.365 151.766 18.43 152.156 18.43C153.276 18.43 154.051 17.915 154.481 16.885L155.111 17.305C154.871 17.875 154.491 18.33 153.971 18.67C153.461 19.01 152.841 19.18 152.111 19.18ZM152.096 11.86C151.726 11.86 151.391 11.93 151.091 12.07C150.791 12.2 150.531 12.385 150.311 12.625C150.101 12.865 149.936 13.155 149.816 13.495C149.706 13.825 149.651 14.19 149.651 14.59V14.665H154.406V14.545C154.406 14.145 154.351 13.78 154.241 13.45C154.131 13.11 153.971 12.825 153.761 12.595C153.561 12.365 153.316 12.185 153.026 12.055C152.746 11.925 152.436 11.86 152.096 11.86Z" fill="black" fill-opacity="0.4"/>
</g>
<defs>
<clipPath id="clip0_34_2">
<rect width="156.476" height="25" fill="white"/>
</clipPath>
</defs>
</svg>
