<svg width="18" height="18" viewBox="0 0 18 18" fill="none" xmlns="http://www.w3.org/2000/svg">
<mask id="mask0_34_37" style="mask-type:luminance" maskUnits="userSpaceOnUse" x="0" y="-1" width="18" height="19">
<path d="M18 -0.00012207H0V17.9999H18V-0.00012207Z" fill="white"/>
</mask>
<g mask="url(#mask0_34_37)">
<path d="M17.7281 8.67219C17.6768 7.61155 17.4123 6.56737 16.9489 5.59782C16.4959 4.64393 15.8424 3.76043 15.0425 3.04288C14.244 2.3211 13.2991 1.75466 12.2767 1.38793C11.2524 1.02836 10.1545 0.863978 9.06442 0.923729C7.97217 0.985872 6.9057 1.27187 5.92246 1.75626C4.96311 2.23585 4.08056 2.91037 3.38139 3.72377C2.6841 4.54037 2.14764 5.48788 1.83216 6.49992C1.51023 7.50958 1.40229 8.57845 1.50808 9.61758C1.59373 10.3837 1.77443 11.0968 2.07193 11.78C2.11623 11.7415 2.17423 11.7155 2.24618 11.7096C1.74893 10.0491 1.83323 8.28235 2.44621 6.71051C3.15128 4.88533 4.56332 3.37775 6.33621 2.57258C8.07689 1.76262 10.1406 1.62534 11.977 2.24169C12.8972 2.54045 13.761 3.01899 14.4988 3.64756C15.2374 4.27853 15.8443 5.04945 16.2883 5.9242C16.7227 6.78301 16.9921 7.74141 17.0598 8.71017C17.1296 9.68078 17.0026 10.6668 16.6898 11.5941C16.377 12.5217 15.8783 13.3899 15.2275 14.131C14.5778 14.8733 13.7755 15.4862 12.8825 15.9268C11.9916 16.3715 11.0102 16.6434 10.009 16.716C9.00857 16.7896 7.99016 16.6652 7.03108 16.3521C6.072 16.0395 5.17254 15.5387 4.40329 14.8831C3.63297 14.2282 2.97783 13.4275 2.51763 12.5238C2.5128 12.5121 2.43466 12.3685 2.41667 12.3252C2.37238 12.2188 2.32217 12.0828 2.31546 12.0897L2.47333 12.5461C2.90991 13.4717 3.51268 14.3257 4.28059 15.0193C5.04769 15.714 5.95709 16.2578 6.94032 16.611C7.9233 16.9643 8.9793 17.1267 10.0307 17.0805C11.0822 17.0359 12.1264 16.7804 13.0841 16.3375C14.0405 15.8922 14.9112 15.2585 15.6249 14.4797C16.3393 13.7018 16.897 12.7815 17.257 11.7888C17.6174 10.7961 17.7804 9.73071 17.7283 8.67192L17.7281 8.67219Z" fill="#36A271"/>
<path d="M2.67155 11.8198C2.79399 11.7362 2.9908 11.0803 3.12746 10.4562C3.26386 9.83213 3.2687 8.06085 3.03564 7.88293C2.80204 7.70527 2.32948 8.70164 2.08784 8.73405C1.84565 8.76617 1.72294 8.7829 1.81504 8.77042C1.90687 8.75794 1.78444 8.77467 1.54225 8.80654C1.30033 8.83894 0.472016 8.09059 0.294807 8.32322C0.118136 8.55559 0.703193 10.1736 1.0023 10.7398C1.30141 11.306 1.65851 11.827 1.79625 11.8982C1.93453 11.9693 2.13187 12.0148 2.23551 12.002C2.34238 11.989 2.5024 11.9433 2.5024 11.9433" fill="#36A271"/>
<path d="M2.73431 13.2561C2.59362 13.2845 2.46071 13.3206 2.31572 13.3238C1.9068 13.3334 1.51425 13.1119 1.23689 12.828C1.35047 12.8169 1.44122 12.7795 1.55936 12.7959C1.6544 12.8092 1.85792 12.8907 1.95459 12.9292C2.17396 13.0163 2.3909 13.1109 2.60972 13.2001C2.65188 13.2173 2.69243 13.2391 2.73431 13.2561Z" fill="#36A271"/>
<path d="M1.73083 12.5108C2.19534 12.4948 2.57365 12.7479 2.70226 13.1964C2.60345 13.1619 2.50304 13.1311 2.4053 13.0927C2.35428 13.0724 1.98295 12.9149 1.96362 12.9006C1.90241 12.8554 1.83501 12.6868 1.79179 12.6175C1.766 12.5835 1.68572 12.5275 1.6825 12.5208C1.67713 12.5099 1.7268 12.5185 1.7311 12.5108H1.73083Z" fill="#36A271"/>
<path d="M1.73109 12.5107C1.72679 12.5186 1.67739 12.5099 1.68249 12.5208C1.68571 12.5274 1.76599 12.5832 1.79176 12.6174C1.835 12.6868 1.90238 12.8553 1.96361 12.9005C1.98294 12.9149 2.35427 13.0723 2.40529 13.0926C2.50301 13.131 2.60344 13.1618 2.70225 13.1963C2.78351 13.225 2.86487 13.2538 2.94631 13.2824L2.92993 13.3233C2.86496 13.3007 2.79837 13.2818 2.73446 13.2561C2.69231 13.2391 2.65177 13.2174 2.60988 13.2C2.39105 13.1108 2.17411 13.0163 1.95474 12.9292C1.85782 12.8907 1.65457 12.8091 1.55952 12.796C1.44138 12.7794 1.35063 12.8169 1.23705 12.8281C1.12106 12.7093 0.990839 12.5415 0.93338 12.3864C1.05582 12.6921 1.42151 12.5211 1.73082 12.5104L1.73109 12.5107Z" fill="#36A271"/>
<path d="M3.03262 13.1154C3.11425 13.0201 3.1991 12.9336 3.263 12.8244C3.4437 12.5159 3.43699 12.1221 3.33281 11.7899C3.27589 11.8719 3.20823 11.9253 3.17117 12.0225C3.14137 12.1008 3.11881 12.2907 3.1078 12.3812C3.08284 12.586 3.06485 12.7918 3.04176 12.9965C3.03719 13.0361 3.03719 13.0762 3.03262 13.1154Z" fill="#36A271"/>
<path d="M2.8755 12.0326C2.66634 12.3811 2.70365 12.7773 2.99954 13.0657C3.0143 12.9756 3.03284 12.8856 3.04411 12.7945C3.05002 12.747 3.08438 12.3964 3.08143 12.3754C3.0723 12.3097 2.96893 12.1866 2.93321 12.1242C2.91765 12.09 2.90798 12.005 2.90423 12C2.89777 11.9912 2.88355 12.0329 2.87577 12.0326H2.8755Z" fill="#36A271"/>
<path d="M2.87506 12.0326C2.88285 12.0326 2.89735 11.9912 2.90352 11.9999C2.90728 12.0052 2.91695 12.0902 2.93252 12.1242C2.96823 12.1866 3.07161 12.3095 3.08073 12.3754C3.08369 12.3961 3.04932 12.7467 3.04341 12.7945C3.03213 12.8856 3.01361 12.9753 2.99884 13.0656C2.98685 13.14 2.97477 13.2142 2.96259 13.2884L3.00153 13.2934C3.01146 13.2343 3.02489 13.1752 3.03187 13.1155C3.03643 13.0762 3.0367 13.0359 3.04099 12.9966C3.06408 12.7915 3.08207 12.5857 3.10705 12.3813C3.11806 12.2909 3.14033 12.1009 3.17041 12.0225C3.20746 11.9253 3.2754 11.8716 3.33204 11.7899C3.28855 11.651 3.21257 11.4802 3.11563 11.3706C3.30251 11.5936 3.01388 11.8005 2.87453 12.0326H2.87506Z" fill="#36A271"/>
<path d="M3.29 14.0401C3.16139 14.0695 3.03976 14.1063 2.9066 14.1129C2.5307 14.1317 2.16393 13.9378 1.90134 13.6837C2.00552 13.6707 2.08794 13.6338 2.19696 13.646C2.28475 13.6559 2.47404 13.7259 2.56399 13.7588C2.76805 13.8335 2.96995 13.9153 3.17348 13.9918C3.21268 14.0063 3.25054 14.0255 3.28974 14.0401H3.29Z" fill="#36A271"/>
<path d="M2.34773 13.3786C2.77464 13.3525 3.12906 13.5759 3.25874 13.9854C3.16693 13.9559 3.07376 13.9302 2.983 13.8972C2.93548 13.88 2.58992 13.7442 2.57166 13.7315C2.51421 13.6917 2.44788 13.5382 2.40653 13.4752C2.38183 13.4447 2.30665 13.3951 2.30369 13.3893C2.2986 13.3795 2.34424 13.386 2.348 13.3786H2.34773Z" fill="#36A271"/>
<path d="M2.34754 13.3789C2.34377 13.3863 2.29813 13.3797 2.30323 13.3895C2.30619 13.3953 2.38164 13.445 2.40607 13.4756C2.44768 13.5382 2.514 13.6917 2.57119 13.7318C2.58945 13.7446 2.935 13.88 2.98254 13.8975C3.07355 13.9308 3.16672 13.9565 3.25828 13.9856C3.33382 14.0101 3.40935 14.0345 3.48489 14.0587L3.47092 14.0967C3.41052 14.0776 3.34876 14.0617 3.28942 14.0398C3.25023 14.0253 3.21236 14.0061 3.17316 13.9915C2.96964 13.915 2.76774 13.8336 2.56368 13.7586C2.47372 13.7257 2.28444 13.6556 2.19664 13.6458C2.08763 13.6336 2.00493 13.6702 1.90102 13.6835C1.7912 13.5773 1.66716 13.4259 1.6105 13.2846C1.7308 13.5626 2.06293 13.3965 2.34727 13.3789H2.34754Z" fill="#36A271"/>
<path d="M3.56759 13.8677C3.65082 13.7735 3.73674 13.6882 3.80225 13.5799C3.98779 13.2739 3.98698 12.8801 3.88791 12.5461C3.82991 12.6273 3.76117 12.6797 3.72252 12.7763C3.69136 12.8541 3.66613 13.044 3.65378 13.134C3.62585 13.3382 3.60464 13.544 3.57833 13.7485C3.57323 13.7878 3.57269 13.8281 3.56732 13.8674L3.56759 13.8677Z" fill="#36A271"/>
<path d="M3.42686 12.7827C3.21234 13.128 3.24374 13.525 3.53533 13.8177C3.55145 13.7277 3.57158 13.6381 3.5842 13.5473C3.59092 13.4998 3.63038 13.1498 3.6277 13.1288C3.61937 13.0629 3.51815 12.9381 3.48324 12.8751C3.46821 12.8406 3.45962 12.7557 3.45612 12.7503C3.44995 12.7416 3.43492 12.7827 3.42712 12.7827H3.42686Z" fill="#36A271"/>
<path d="M3.42712 12.7825C3.43491 12.7825 3.44995 12.7413 3.45612 12.75C3.45987 12.7553 3.4682 12.8406 3.48323 12.8749C3.51814 12.9378 3.61964 13.0623 3.62769 13.1284C3.63037 13.1495 3.59064 13.4995 3.5842 13.547C3.57157 13.6378 3.5517 13.7276 3.53532 13.8173C3.52208 13.8915 3.50892 13.9656 3.49585 14.0397L3.53479 14.0452C3.5458 13.9863 3.55975 13.9272 3.56782 13.8678C3.57319 13.8284 3.57372 13.7883 3.57882 13.7488C3.60513 13.5441 3.62608 13.3385 3.65427 13.1343C3.66662 13.0441 3.69186 12.8545 3.723 12.7766C3.76167 12.68 3.83041 12.6274 3.8884 12.5464C3.84705 12.4067 3.77348 12.2349 3.67817 12.1238C3.86182 12.3499 3.56996 12.5525 3.42712 12.7825Z" fill="#36A271"/>
<path d="M3.84731 14.7092C3.72783 14.7505 3.61586 14.7974 3.48995 14.8171C3.13391 14.8729 2.76499 14.725 2.48898 14.5096C2.58672 14.4867 2.66162 14.4435 2.7666 14.4439C2.85119 14.4445 3.03859 14.4924 3.12773 14.5147C3.32965 14.5654 3.53021 14.6227 3.73186 14.675C3.77079 14.6851 3.80865 14.6994 3.84731 14.7092Z" fill="#36A271"/>
<path d="M2.88286 14.1749C3.28668 14.1072 3.64701 14.2841 3.8124 14.6609C3.72192 14.6423 3.63063 14.6269 3.54068 14.6045C3.4937 14.5929 3.15082 14.4983 3.13202 14.4883C3.07322 14.4562 2.99429 14.3165 2.94837 14.261C2.92179 14.2341 2.845 14.1948 2.84151 14.1892C2.83561 14.1802 2.8799 14.1821 2.88259 14.1747L2.88286 14.1749Z" fill="#36A271"/>
<path d="M2.88276 14.1746C2.88008 14.182 2.83577 14.1802 2.84168 14.1892C2.84517 14.1945 2.92196 14.2341 2.94855 14.261C2.99445 14.3164 3.07339 14.4559 3.13219 14.4882C3.15072 14.4983 3.49359 14.5929 3.54085 14.6046C3.6308 14.6269 3.72208 14.642 3.81257 14.6609C3.88703 14.6765 3.96141 14.6921 4.03569 14.7076L4.0263 14.7453C3.96695 14.7333 3.90654 14.7243 3.84774 14.7094C3.80908 14.6996 3.77096 14.6853 3.73229 14.6752C3.53064 14.6229 3.33008 14.5655 3.12816 14.5148C3.03903 14.4925 2.85162 14.4447 2.76703 14.4442C2.66205 14.4434 2.58715 14.487 2.48941 14.5097C2.37396 14.4197 2.24024 14.288 2.17204 14.1593C2.31516 14.4117 2.61426 14.22 2.88303 14.1749L2.88276 14.1746Z" fill="#36A271"/>
<path d="M4.1572 14.4653C4.23532 14.3662 4.31641 14.2762 4.37602 14.1641C4.54436 13.8476 4.52154 13.4532 4.40341 13.1243C4.34998 13.2086 4.2842 13.2652 4.2509 13.364C4.22405 13.4436 4.20955 13.6351 4.20231 13.7259C4.18593 13.9321 4.17626 14.1391 4.1615 14.3455C4.15854 14.3854 4.16014 14.4255 4.1572 14.4653Z" fill="#36A271"/>
<path d="M3.95558 13.3852C3.76011 13.7429 3.81409 14.1387 4.12259 14.4157C4.13386 14.3245 4.14863 14.234 4.15614 14.142C4.16017 14.094 4.18004 13.7413 4.17629 13.7206C4.16421 13.655 4.05573 13.5359 4.01734 13.4747C4.00016 13.441 3.98699 13.3563 3.98297 13.3512C3.97625 13.3428 3.96363 13.385 3.95585 13.3852H3.95558Z" fill="#36A271"/>
<path d="M3.95564 13.3862C3.96371 13.3862 3.97632 13.3437 3.98277 13.3523C3.9868 13.3572 3.99995 13.4423 4.01714 13.4757C4.05552 13.5368 4.16427 13.656 4.17608 13.7217C4.17985 13.7424 4.15997 14.095 4.15595 14.1431C4.14843 14.2347 4.13366 14.3255 4.12239 14.4166C4.11344 14.4915 4.1044 14.5665 4.09526 14.6416C4.10834 14.6426 4.1214 14.6438 4.13447 14.6449C4.14198 14.5852 4.15299 14.5258 4.15756 14.4655C4.16051 14.4258 4.1589 14.3855 4.16186 14.3457C4.17662 14.1394 4.18602 13.9322 4.20267 13.7262C4.20992 13.635 4.22468 13.4439 4.25126 13.3642C4.28456 13.2651 4.35034 13.2089 4.40377 13.1244C4.35437 12.9868 4.27113 12.8188 4.16937 12.713C4.36592 12.9292 4.08533 13.1483 3.95511 13.3865L3.95564 13.3862Z" fill="#36A271"/>
<path d="M4.54437 15.3471C4.43214 15.4008 4.32796 15.4591 4.20688 15.4924C3.86481 15.5867 3.48703 15.483 3.19221 15.303C3.28538 15.2696 3.35359 15.2189 3.45642 15.2079C3.53939 15.1989 3.72787 15.2247 3.81782 15.2367C4.02135 15.2637 4.22406 15.2974 4.42731 15.3261C4.46651 15.3317 4.50518 15.3415 4.54437 15.3468V15.3471Z" fill="#36A271"/>
<path d="M3.53932 14.9325C3.92675 14.8212 4.2997 14.954 4.50456 15.3046C4.41408 15.2964 4.32279 15.2915 4.23231 15.2798C4.18478 15.2737 3.83869 15.2195 3.81936 15.2116C3.75814 15.1866 3.66497 15.0589 3.61368 15.0098C3.58468 14.9867 3.50495 14.9564 3.50092 14.9516C3.49421 14.9434 3.5377 14.9402 3.53958 14.9327L3.53932 14.9325Z" fill="#36A271"/>
<path d="M3.54003 14.9324C3.53815 14.9398 3.49465 14.943 3.50136 14.9512C3.50539 14.9561 3.58514 14.9863 3.61414 15.0094C3.66542 15.0586 3.75859 15.1862 3.8198 15.2112C3.83913 15.2192 4.1855 15.2734 4.23276 15.2795C4.32323 15.2914 4.41453 15.2959 4.50502 15.3042C4.57965 15.311 4.65429 15.3181 4.72894 15.3251L4.7241 15.3631C4.6645 15.3578 4.60436 15.356 4.54529 15.348C4.50609 15.3427 4.46742 15.3329 4.42822 15.3272C4.22497 15.2986 4.02199 15.2646 3.81873 15.2378C3.72905 15.2259 3.5403 15.2001 3.45733 15.2091C3.3545 15.2202 3.28603 15.2709 3.19312 15.3042C3.06989 15.2288 2.92409 15.1151 2.84247 14.9966C3.01135 15.228 3.28201 15.007 3.54003 14.9326V14.9324Z" fill="#36A271"/>
<path d="M4.83078 15.0376C4.89737 14.9316 4.96799 14.8342 5.01525 14.7174C5.14814 14.3872 5.0837 13.9998 4.932 13.687C4.88798 13.7759 4.82918 13.8386 4.80662 13.9397C4.78863 14.0213 4.79454 14.212 4.79695 14.3025C4.80259 14.5078 4.81494 14.7136 4.8222 14.9189C4.82354 14.9584 4.82944 14.998 4.83052 15.0376H4.83078Z" fill="#36A271"/>
<path d="M4.51682 13.9928C4.36163 14.3664 4.45667 14.752 4.79096 14.9937C4.7923 14.9026 4.7974 14.8115 4.79525 14.7199C4.79418 14.6722 4.77619 14.3216 4.77028 14.3014C4.75149 14.2377 4.63147 14.1311 4.58717 14.0749C4.56676 14.0432 4.54474 13.9609 4.54018 13.9564C4.53266 13.9487 4.52461 13.9918 4.51682 13.9928Z" fill="#36A271"/>
<path d="M4.51665 13.9922C4.52444 13.9912 4.53249 13.9482 4.54001 13.9559C4.54457 13.9605 4.56659 14.043 4.58699 14.0744C4.63157 14.1307 4.75132 14.2371 4.77012 14.3009C4.77602 14.3211 4.79374 14.6715 4.79508 14.7194C4.79749 14.8107 4.7924 14.9021 4.79078 14.9931L4.78784 15.2181L4.82704 15.2173C4.82811 15.1576 4.83268 15.0976 4.83079 15.0375C4.82972 14.998 4.82381 14.9583 4.82247 14.9188C4.81523 14.7133 4.8026 14.5077 4.79723 14.3025C4.79481 14.2119 4.78891 14.0212 4.8069 13.9397C4.82918 13.8385 4.88825 13.7758 4.93229 13.6868C4.86892 13.5559 4.76878 13.3985 4.65707 13.3045C4.87429 13.4976 4.62002 13.7432 4.51665 13.992V13.9922Z" fill="#36A271"/>
<path d="M17.1726 8.68441C17.1232 7.66253 16.8684 6.65633 16.422 5.7221C15.9857 4.803 15.3557 3.95163 14.5852 3.26037C13.8156 2.56514 12.9054 2.01916 11.9203 1.66597C10.9333 1.31967 9.87541 1.16141 8.82531 1.21903C7.7728 1.27878 6.74553 1.55443 5.79799 2.02102C4.87355 2.48309 4.02349 3.13291 3.34983 3.91657C2.67778 4.70342 2.16119 5.61641 1.85698 6.59155C1.54687 7.56455 1.44269 8.59412 1.54471 9.59554C1.62687 10.33 1.79952 11.0136 2.0836 11.669C2.12896 11.6408 2.18535 11.6238 2.25248 11.6238C2.25489 11.6238 2.2573 11.6242 2.25973 11.6242C1.77643 10.0204 1.85645 8.3129 2.44875 6.79443C3.12805 5.03591 4.48852 3.5833 6.19672 2.8076C7.87402 2.02713 9.86224 1.89487 11.6316 2.48893C12.5182 2.7768 13.3505 3.23781 14.0613 3.84354C14.7731 4.45141 15.3576 5.19444 15.7853 6.03732C16.2039 6.8648 16.4636 7.78841 16.5286 8.72158C16.5957 9.65662 16.4735 10.6068 16.1719 11.5001C15.8707 12.3938 15.3901 13.2302 14.7632 13.9443C14.137 14.6595 13.3639 15.2498 12.5037 15.6745C11.6453 16.1028 10.6997 16.3651 9.73525 16.435C8.77134 16.506 7.78998 16.3861 6.86607 16.0844C5.94191 15.7833 5.07546 15.3008 4.33414 14.6691C3.59201 14.038 2.96077 13.2666 2.51748 12.3961C2.51318 12.3862 2.44069 12.2788 2.40579 12.2248C2.40391 12.2259 2.3153 12.0851 2.31342 12.0862L2.45654 12.4224C2.87727 13.3141 3.47603 14.1326 4.21574 14.8004C4.9549 15.4699 5.83102 15.994 6.77828 16.3341C7.72554 16.6745 8.74287 16.831 9.75592 16.7863C10.769 16.7433 11.775 16.4972 12.6979 16.0703C13.6193 15.6413 14.4584 15.0307 15.1458 14.2806C15.8342 13.5311 16.3714 12.6444 16.7184 11.6876C17.0655 10.7311 17.2224 9.70469 17.1724 8.68441H17.1726Z" fill="#36A271"/>
<path d="M17.0202 8.96234C16.972 7.9604 16.722 6.97359 16.284 6.05767C15.8563 5.15636 15.2385 4.32171 14.483 3.64374C13.7285 2.96179 12.8357 2.42669 11.87 2.08014C10.9023 1.74075 9.86482 1.5854 8.83512 1.6417C7.80329 1.70039 6.79561 1.97046 5.86688 2.42802C4.96043 2.88107 4.12674 3.51841 3.46624 4.28693C2.80735 5.05838 2.30069 5.95357 2.00239 6.90985C1.69819 7.86373 1.59615 8.87338 1.69603 9.85542C1.77658 10.5756 1.94601 11.2459 2.22444 11.8885C2.26902 11.8609 2.32405 11.8445 2.3901 11.8445C2.39252 11.8445 2.39467 11.8447 2.39709 11.8447C1.92318 10.2723 2.00159 8.598 2.58234 7.10875C3.24849 5.38448 4.58266 3.96003 6.25755 3.19946C7.9021 2.4344 9.85193 2.30453 11.587 2.8869C12.456 3.16919 13.2723 3.62118 13.9693 4.21523C14.6672 4.81113 15.2404 5.53983 15.66 6.36624C16.0706 7.17753 16.3252 8.08309 16.3888 8.99846C16.4546 9.91543 16.3348 10.847 16.0391 11.7231C15.7436 12.5995 15.2727 13.4194 14.6577 14.1198C14.0438 14.821 13.286 15.4001 12.4422 15.8164C11.6004 16.2365 10.6733 16.4936 9.72734 16.562C8.78196 16.6317 7.81994 16.5143 6.91403 16.2185C6.00784 15.9232 5.15831 15.45 4.4315 14.8304C3.7036 14.2116 3.0847 13.455 2.65001 12.6016C2.64598 12.5917 2.57483 12.4864 2.54073 12.4338C2.53885 12.4348 2.45186 12.2967 2.45025 12.2978L2.59067 12.6273C3.00308 13.5016 3.59029 14.3041 4.31577 14.9592C5.04044 15.6157 5.89964 16.1295 6.82864 16.463C7.75737 16.7968 8.75512 16.9503 9.74829 16.9065C10.7415 16.8643 11.7282 16.6229 12.633 16.2044C13.5365 15.7835 14.3593 15.1851 15.0334 14.4493C15.7084 13.7142 16.2352 12.8448 16.5754 11.9069C16.9158 10.969 17.0697 9.96244 17.0208 8.96208L17.0202 8.96234Z" fill="#36A271"/>
<path d="M16.6542 8.91476C16.6066 7.93166 16.3615 6.96397 15.9318 6.06532C15.5122 5.18128 14.9063 4.36229 14.1652 3.69734C13.4249 3.02839 12.5494 2.50339 11.6018 2.16347C10.6524 1.83046 9.63482 1.67803 8.62473 1.73353C7.61249 1.79116 6.62415 2.05619 5.71287 2.50497C4.8236 2.94952 4.00576 3.57464 3.35787 4.32856C2.7116 5.0854 2.21434 5.96361 1.92194 6.90156C1.62364 7.83739 1.52349 8.82792 1.6215 9.7911C1.70043 10.4975 1.86664 11.1553 2.13997 11.7858C2.18373 11.7586 2.2377 11.7424 2.30241 11.7424C2.30482 11.7424 2.30698 11.7427 2.30939 11.7427C1.84435 10.2001 1.9214 8.55758 2.49116 7.09675C3.14468 5.40514 4.45335 4.00804 6.09655 3.26182C7.70996 2.51109 9.62247 2.38389 11.3247 2.95537C12.1775 3.23207 12.9781 3.67557 13.6618 4.25846C14.3464 4.84322 14.9087 5.55784 15.3203 6.36859C15.723 7.16446 15.9727 8.05302 16.035 8.95088C16.0997 9.85032 15.9821 10.7641 15.6918 11.6238C15.4019 12.4833 14.9398 13.288 14.3368 13.975C13.7346 14.6631 12.991 15.2308 12.1633 15.6392C11.3376 16.0514 10.428 16.3037 9.50003 16.3708C8.57264 16.4391 7.62887 16.3239 6.74014 16.0338C5.85115 15.7442 5.01773 15.2799 4.30486 14.6721C3.59093 14.065 2.98386 13.323 2.55721 12.4858C2.55319 12.4762 2.48338 12.3729 2.44981 12.3211C2.44794 12.3221 2.36282 12.1867 2.36094 12.1878L2.49867 12.511C2.90331 13.3687 3.47924 14.1558 4.19102 14.7987C4.90201 15.4427 5.74481 15.9467 6.6561 16.274C7.56711 16.6013 8.54579 16.7519 9.52043 16.7089C10.4948 16.6675 11.4625 16.4309 12.3504 16.0201C13.2367 15.6071 14.0438 15.0202 14.7052 14.2982C15.3673 13.5771 15.8841 12.7241 16.2179 11.804C16.5519 10.8839 16.7028 9.89653 16.6546 8.91529L16.6542 8.91476Z" fill="#36A271"/>
</g>
</svg>
